<?xml version="1.0" encoding="UTF-8"?>
<svg width="200px" height="32px" viewBox="0 0 200 32" version="1.1" xmlns="http://www.w3.org/2000/svg" xmlns:xlink="http://www.w3.org/1999/xlink">
    <!-- Generator: Sketch 56.2 (81672) - https://sketch.com -->
    <title>Group 23 Copy</title>
    <desc>Created with Sketch.</desc>
    <defs>
        <polygon id="path-1" points="0 0.0648421053 18.001519 0.0648421053 18.001519 31.1578947 0 31.1578947"></polygon>
        <polygon id="path-3" points="0.578987342 0.748294737 19.0092827 0.748294737 19.0092827 30.6876632 0.578987342 30.6876632"></polygon>
    </defs>
    <g id="Symbols" stroke="none" stroke-width="1" fill="none" fill-rule="evenodd">
        <g id="footer/desktop" transform="translate(-740.000000, -256.000000)">
            <g id="Group-23-Copy" transform="translate(740.000000, 256.000000)">
                <path d="M30.8591561,18.6343579 L39.3452321,18.6343579 C40.3739241,18.6343579 41.245654,18.4280421 41.9604219,18.0145684 C42.6735021,17.6010947 43.202616,17.1370947 43.5460759,16.6242526 C43.888692,16.1105684 44.1460759,15.4124632 44.317384,14.5290947 C44.5452321,13.5303579 44.66,12.2469895 44.66,10.6789895 C44.66,8.36993684 44.167173,6.64446316 43.1823629,5.50425263 C42.195865,4.36404211 40.86,3.79309474 39.1747679,3.79309474 L30.8591561,3.79309474 L28.4591561,3.79309474 L28.4591561,1.52614737 L39.002616,1.52614737 C41.7165401,1.52614737 43.738481,2.35393684 45.0675949,4.00698947 C46.395865,5.66172632 47.06,7.88488421 47.06,10.6789895 C47.06,11.6777263 47.038903,12.5257263 46.9967089,13.2238316 C46.952827,13.9227789 46.7891139,14.8069895 46.503038,15.8764632 C46.216962,16.9450947 45.8178059,17.8149895 45.303038,18.4844632 C44.7891139,19.1547789 44.016962,19.7392 42.98827,20.2385684 C41.9604219,20.7379368 40.7308861,20.9863579 39.303038,20.9863579 L30.8591561,20.9863579 L30.8591561,31.4655158 L28.4591561,31.4655158 L28.4591561,18.6343579 L30.8591561,18.6343579 Z" id="Fill-1" fill="#FFFFFF"></path>
                <g id="Group-5" transform="translate(0.000000, 0.777684)">
                    <mask id="mask-2" fill="white">
                        <use xlink:href="#path-1"></use>
                    </mask>
                    <g id="Clip-4"></g>
                    <path d="M15.6437131,22.6901053 L15.6437131,8.61852632 C15.6437131,6.53768421 15.0361181,4.96884211 13.822616,3.91368421 C12.6065823,2.85852632 10.9998312,2.33052632 9.00067511,2.33052632 C6.99983122,2.33052632 5.39983122,2.85852632 4.19983122,3.91368421 C3.00067511,4.96884211 2.40067511,6.53768421 2.40067511,8.61852632 L2.40067511,22.7322105 C2.40067511,24.7574737 3.02092827,26.2892632 4.26481013,27.3301053 C5.50700422,28.3709474 7.09265823,28.8913684 9.02092827,28.8913684 C10.9500422,28.8913684 12.5365401,28.3852632 13.7787342,27.3730526 C15.022616,26.3608421 15.6437131,24.7995789 15.6437131,22.6901053 M18.001519,9.04631579 L18.001519,22.7751579 C18.001519,25.6551579 17.1221941,27.7722105 15.3652321,29.1263158 C13.60827,30.4812632 11.5002532,31.1583158 9.04371308,31.1583158 C6.58548523,31.1583158 4.46312236,30.4812632 2.67915612,29.1263158 C0.892658228,27.7722105 -0.000168776371,25.6551579 -0.000168776371,22.7751579 L-0.000168776371,9.00336842 C-0.000168776371,6.06610526 0.80742616,3.84294737 2.42092827,2.33052632 C4.03443038,0.820631579 6.25721519,0.0644210526 9.08590717,0.0644210526 C11.9145992,0.0644210526 14.1070042,0.863578947 15.6648101,2.45936842 C17.2217722,4.05684211 18.001519,6.25136842 18.001519,9.04631579" id="Fill-3" fill="#FFFFFF" mask="url(#mask-2)"></path>
                </g>
                <polygon id="Fill-6" fill="#FFFFFF" points="70.3345148 31.4653474 56.104135 31.4653474 56.104135 1.52597895 70.4180591 1.52597895 70.4180591 3.74997895 58.504135 3.74997895 58.504135 13.8005053 66.6914768 13.8005053 66.6914768 16.1533474 58.504135 16.1533474 58.504135 29.3264 70.3345148 29.3264"></polygon>
                <polygon id="Fill-8" fill="#FFFFFF" points="101.408186 31.4653474 99.0064979 31.4653474 82.7195781 5.93187368 82.7195781 31.4653474 80.3195781 31.4653474 80.3195781 1.52597895 82.7195781 1.52597895 99.0064979 27.0594526 99.0064979 1.52597895 101.408186 1.52597895"></polygon>
                <polygon id="Fill-10" fill="#8CC63F" points="118.80827 31.4653474 116.409114 31.4653474 116.409114 3.66492632 109.122194 3.66492632 109.122194 1.52597895 126.350886 1.52597895 126.350886 3.66492632 118.80827 3.66492632"></polygon>
                <path d="M173.155443,30.4813474 C170.725907,31.4228211 168.410295,31.8927158 166.211139,31.8927158 C165.754599,31.8927158 165.061772,31.8497684 164.133502,31.7638737 C163.203544,31.6788211 162.219578,31.3588211 161.174852,30.8021895 C160.132658,30.2464 159.288776,29.3621895 158.646582,28.1504 C158.003544,26.9394526 157.682025,25.4346105 157.682025,23.6384 L157.682025,9.90871579 C157.682025,7.74282105 157.990042,6.1024 158.6027,4.98997895 C159.218734,3.8784 160.153755,2.93776842 161.411983,2.16724211 C162.698059,1.45566316 164.224641,1.09861053 165.996793,1.09861053 C168.195949,1.09861053 170.225485,1.56934737 172.083713,2.50997895 L171.397637,4.13524211 C169.769789,3.53566316 168.226329,3.23671579 166.769789,3.23671579 C162.310717,3.23671579 160.082869,5.33271579 160.082869,9.52387368 L160.082869,23.5525053 C160.082869,27.2880842 161.898059,29.3268211 165.525907,29.6695579 C165.811983,29.7259789 166.109873,29.7546105 166.424641,29.7546105 C168.139409,29.7546105 170.211983,29.3268211 172.639831,28.4712421 L173.155443,30.4813474 Z" id="Fill-12" fill="#8CC63F"></path>
                <g id="Group-16" transform="translate(180.590717, 0.777684)">
                    <mask id="mask-4" fill="white">
                        <use xlink:href="#path-3"></use>
                    </mask>
                    <g id="Clip-15"></g>
                    <polygon id="Fill-14" fill="#8CC63F" mask="url(#mask-4)" points="19.0093671 30.6876632 16.6076793 30.6876632 16.6076793 15.3756632 2.97814346 15.3756632 2.97814346 30.6876632 0.578987342 30.6876632 0.578987342 0.748294737 2.97814346 0.748294737 2.97814346 13.0228211 16.6076793 13.0228211 16.6076793 0.748294737 19.0093671 0.748294737"></polygon>
                </g>
                <polygon id="Fill-17" fill="#8CC63F" points="133.981688 31.4653474 148.208692 31.4653474 148.208692 29.3264 136.380844 29.3264 136.380844 29.3137684 133.981688 29.3137684"></polygon>
                <polygon id="Fill-19" fill="#8CC63F" points="136.380591 3.74989474 148.296203 3.74989474 148.296203 1.52589474 133.981435 1.52589474 133.981435 3.75831579 136.380591 3.75831579"></polygon>
                <polygon id="Fill-21" fill="#8CC63F" points="144.566414 16.1532632 144.566414 13.8096842 133.981603 13.8096842 133.981603 16.1532632 136.380759 16.1532632"></polygon>
            </g>
        </g>
    </g>
</svg>